<svg id="Layer_1" data-name="Layer 1" xmlns="http://www.w3.org/2000/svg" viewBox="0 0 94.1611 88.6201"><defs><style>.cls-1{fill:#ed1c24;}</style></defs><title>chair</title><path class="cls-1" d="M87.1894,22.4238q-0.85545,2.6016-1.6797,5.2231A42.99231,42.99231,0,0,1,72.5273,81.8144a12.81629,12.81629,0,0,1,3.1397,2.666A47.072,47.072,0,0,0,87.1894,22.4238Z"/><path class="cls-1" d="M9.5161,70.3369c0.4458,0,.896.0146,1.3447,0.0244A43.05687,43.05687,0,0,1,65.9922,8.3828,22.278,22.278,0,0,1,68.4316,5.124,47.073,47.073,0,0,0,6.2348,70.4843C7.3642,70.372,8.477,70.3369,9.5161,70.3369Z"/><path class="cls-1" d="M53.4541,82.0419c0.4365-6.1435-.8721-14.0244.6572-19.0712,4.5273-.0762,9.5605.3535,13.1523-0.6582C75.4375,47.4677,79.29,28.3042,85.6797,11.6728V9.0419c-0.6748-3.0542-3.753-3.7021-6.5782-4.604H78.4453C67.8457,7.8681,66.4883,20.5419,63.9785,32.06c-15.7949-4.1431-32.2984-.0591-32.8848,15.1255-4.5278.0762-7.9839,1.2246-9.8647,3.9463-0.5718,6.709,1.5688,10.7051,6.5771,11.8389q-1.85745,8.0067-7.2344,12.4931C14.167,76.0761,4.936,73.8593,1.5,77.4394v2.6289c3.1508,3.8633,12.8549,1.1777,19.0717,1.9746,6.5933-3.9297,8.4581-12.5879,11.8384-19.7285,4.6739,0.3672,10.8648-.7812,14.4678.6563V82.7001c-7.8262.504-15.4458,1.2149-19.0718,5.92H72.5273C69.2715,83.3261,60.0547,83.9941,53.4541,82.0419ZM37.6699,47.1855C38.354,35.4819,53.0361,35.498,63.3183,38.6372c0.1026,4.7207-.5166,10.1626,1.3145,13.1528C57.5908,50.9375,47.5551,47.3886,37.6699,47.1855Z"/></svg>