<svg id="Layer_2" data-name="Layer 2" xmlns="http://www.w3.org/2000/svg" viewBox="0 0 141.66602 139.54102"><defs><style>.cls-1{fill:#262424;}</style></defs><title>clock</title><path class="cls-1" d="M71.833,21.4629V1a1,1,0,1,0-2,0V21.4629c0.334-.0068.665-0.0254,1-0.0254S71.499,21.4561,71.833,21.4629Z"/><path class="cls-1" d="M45.76759,28.4365c0.5683-.3457,1.14941-0.6738,1.73341-0.997L37.26269,9.7412a0.99983,0.99983,0,0,0-1.7305,1.002Z"/><path class="cls-1" d="M10.50189,34.7266a0.99833,0.99833,0,0,0,.3623,1.3662l17.6817,10.2705c0.3232-.583.6523-1.1631,0.999-1.7305L11.86809,34.3643A0.9999,0.9999,0,0,0,10.50189,34.7266Z"/><path class="cls-1" d="M106.4101,8.5205a0.99833,0.99833,0,0,0-1.3662.3623L94.2402,27.4824c0.583,0.3242,1.1621.6533,1.7305,1L106.7724,9.8867A0.99816,0.99816,0,0,0,106.4101,8.5205Z"/><path class="cls-1" d="M131.7822,35.668a0.9998,0.9998,0,0,0-1.0019-1.7305L112.167,44.70511c0.34568,0.5683.67378,1.1494,0.997,1.7334Z"/><path class="cls-1" d="M22.5,69.77051c0-.335.01849-0.666,0.02539-1H1a1,1,0,0,0,0,2H22.52539C22.51849,70.43651,22.5,70.10551,22.5,69.77051Z"/><path class="cls-1" d="M140.666,68.77051H119.1406c0.0068,0.334.02542,0.665,0.02542,1s-0.01862.666-.02542,1H140.666A1,1,0,0,0,140.666,68.77051Z"/><path class="cls-1" d="M130.8017,103.44821l-17.6816-10.2705c-0.3232.584-.6533,1.1631-1,1.7305l17.6777,10.2686A0.99948,0.99948,0,0,0,130.8017,103.44821Z"/><path class="cls-1" d="M9.88379,103.873a0.9998,0.9998,0,1,0,1.0019,1.7305L29.499,94.83591c-0.34571-.5683-0.67381-1.1494-0.99711-1.7334Z"/><path class="cls-1" d="M95.8984,111.10451c-0.5683.3457-1.14939,0.6738-1.73339,0.9971l10.23829,17.6982a0.9998,0.9998,0,1,0,1.7305-1.0019Z"/><path class="cls-1" d="M34.89349,129.65431a0.99945,0.99945,0,1,0,1.72851,1.0039l10.80379-18.5996c-0.583-.3242-1.1622-0.6533-1.7305-1Z"/><path class="cls-1" d="M69.833,118.07811V138.541a1,1,0,0,0,2,0v-20.4629c-0.334.0069-.66511,0.0254-1,0.0254S70.167,118.085,69.833,118.07811Z"/><path class="cls-1" d="M104.7441,51.88671a1.50027,1.50027,0,1,0-1.5019-2.5976l-28.4317,16.4472h0a5.65988,5.65988,0,0,0-7.9482-.0058l-20.3428-11.8184a1.50011,1.50011,0,0,0-1.5078,2.5938l20.3467,11.8203a5.66741,5.66741,0,1,0,10.9511.0097Zm-29.4013,14.4619c-0.0196-.0254-0.0372-0.0517-0.0577-0.0771C75.30559,66.29691,75.32319,66.32321,75.34279,66.34861Zm0.3935,0.5889-0.0215-.0352Zm-9.78029-.0439c-0.00681.0127-.01461,0.0244-0.02151,0.0371C65.94139,66.918,65.94919,66.90631,65.956,66.89361Zm0.42579-.6241c-0.0166.0215-.0322,0.044-0.04879,0.0655C66.34959,66.31351,66.36519,66.291,66.38179,66.26951Zm4.45121,6.168a2.667,2.667,0,1,1,2.667-2.667A2.66987,2.66987,0,0,1,70.833,72.43751Z"/></svg>