<svg id="Layer_1" data-name="Layer 1" xmlns="http://www.w3.org/2000/svg" viewBox="0 0 94.1631 91.9912"><defs><style>.cls-1{fill:#ed1c24;}</style></defs><title>column</title><circle class="cls-1" cx="47.08187" cy="17.27882" r="9.10585"/><path class="cls-1" d="M67.458,26.3848H26.705a2.82487,2.82487,0,0,0-2.8168,2.8174v4.4697a2.826,2.826,0,0,0,2.8168,2.8183h0.8282V81.8838H26.705a2.82541,2.82541,0,0,0-2.8168,2.8184v4.4707a2.82506,2.82506,0,0,0,2.8168,2.8183H67.458a2.82551,2.82551,0,0,0,2.8174-2.8183V84.7022a2.82747,2.82747,0,0,0-2.8174-2.8184H66.6318V36.4912H67.458a2.82519,2.82519,0,0,0,2.8174-2.8183V29.2031A2.82519,2.82519,0,0,0,67.458,26.3848ZM33.6621,36.4912H46.8608L33.6621,49.6895V36.4912ZM60.5009,81.8848H47.0268L60.5009,68.4102V81.8848Zm0-28.7168L33.6621,80.0078V64.9316L60.5009,38.0928V53.168Z"/><path class="cls-1" d="M47.081,0A47.08261,47.08261,0,0,0,18.8882,84.79V84.7022a7.76623,7.76623,0,0,1,1.1767-4.0987,43.07986,43.07986,0,1,1,54.0347,0,7.76653,7.76653,0,0,1,1.1777,4.0987v0.0859A47.08254,47.08254,0,0,0,47.081,0Z"/></svg>