<svg id="Layer_1" data-name="Layer 1" xmlns="http://www.w3.org/2000/svg" viewBox="0 0 44.9776 12.90072"><defs><style>.cls-1{fill:#010101;}</style></defs><title>mustache</title><path class="cls-1" d="M22.4883,8.2402a10.47519,10.47519,0,0,0,8.7803,4.6504c7.1611,0.2764,13.709-5.2177,13.709-7.2812-2.7578,2.4941-7.3672,2.7168-9.9307,1.6953-3.7783-1.5088-3.1201-4.4941-5.874-6.4473a5.13728,5.13728,0,0,0-5.6875,0,5.189,5.189,0,0,0-.9971.8106,5.12166,5.12166,0,0,0-.997-0.8106,5.139,5.139,0,0,0-5.6885,0c-2.753,1.9532-2.0947,4.9375-5.8731,6.4473C7.3663,8.3272,2.7579,8.1035,0,5.6094c0,2.0635,6.5469,7.5576,13.709,7.2812a10.47129,10.47129,0,0,0,8.7793-4.6504h0Z" transform="translate(0 0.00006)"/></svg>