<svg id="Layer_1" data-name="Layer 1" xmlns="http://www.w3.org/2000/svg" viewBox="0 0 94.9434 94.164"><defs><style>.cls-1{fill:#ed1c24;}</style></defs><title>scissors</title><path class="cls-1" d="M90.2842,28.3901a47.2078,47.2078,0,0,0-8.5088-13.0972q-0.96975,1.89045-1.9756,3.7779A43.15963,43.15963,0,0,1,86.2227,29.084C87.5625,28.8427,88.917,28.6181,90.2842,28.3901Z"/><path class="cls-1" d="M90.0088,43.5639c0.0947,1.1612.1553,2.3321,0.1553,3.5181a43.08274,43.08274,0,0,1-43.082,43.082q-1.1793,0-2.3418-.0664a7.48972,7.48972,0,0,1,.2187,1.8418,6.59132,6.59132,0,0,1-.4033,2.1543c0.8369,0.0449,1.6787.0703,2.5264,0.0703a47.0012,47.0012,0,0,0,46.666-53.2412A38.30714,38.30714,0,0,1,90.0088,43.5639Z"/><path class="cls-1" d="M4,47.082A43.07494,43.07494,0,0,1,68.6504,9.7929c1.084-.8588,2.2109-1.7358,3.3613-2.624A47.06529,47.06529,0,1,0,29.6572,90.8066a18.21628,18.21628,0,0,1-.5693-4.582A43.07876,43.07876,0,0,1,4,47.082Z"/><path class="cls-1" d="M38.7705,84.9062c7.7373-2.7207,16.3116-9.6621,14.5391-19.8262-0.8975-5.1445-4.4805-5-7.2695-9.2519C60.4776,43.831,70.252,27.1718,79.083,9.5669H77.1006c-7.4463,5.6611-21.9101,16.9829-28.417,26.435-2.6035,3.7803-4.5937,9.313-7.2705,13.878-4.542,7.7451-15.125,21.2294-6.6084,31.0615C33.4248,85.5605,33.6006,93.33,38.7696,93.498,42.0391,91.7715,37.3848,88.8945,38.7705,84.9062ZM47.0821,46.081a2.5835,2.5835,0,1,1-2.5831,2.583A2.5839,2.5839,0,0,1,47.0821,46.081ZM36.7871,74.9941c-1.8564-9.0029,7.0098-16.9502,11.8965-9.2519C48.9434,73.1601,42.502,81.5097,36.7871,74.9941Z"/><path class="cls-1" d="M55.9531,51.2031C69.916,46,86.5303,43.4502,94.9434,32.6982c-9.4141,1.3789-18.1192,3.4688-27.7559,4.626C65.0537,43.56,60.1563,47.0351,55.9531,51.2031Z"/><path class="cls-1" d="M12.335,39.9677C8.1123,52.2158,20.7598,55.958,34.1446,53.8457c3.7841-4.8135,5.8496-9.9639,1.9824-15.8609C31.2334,30.5239,15.2158,31.6118,12.335,39.9677Zm5.2871,7.2691C12.499,36.3969,30.5127,36.1709,32.1612,41.9502,34.3389,49.582,23.0635,49.9824,17.6221,47.2368Z"/></svg>