<svg id="Layer_1" data-name="Layer 1" xmlns="http://www.w3.org/2000/svg" viewBox="0 0 21 20"><title>shears-small</title><g id="Page-1"><g id="Core"><g id="content-cut"><path id="Shape" d="M8.5,4a4,4,0,1,0-4,4,2.93616,2.93616,0,0,0,1.6001-.3999L8.5,10,6.1001,12.4004A2.92788,2.92788,0,0,0,4.5,12a4,4,0,1,0,4,4,2.93556,2.93556,0,0,0-.3999-1.5996L10.5,12l7,7h4L8.1001,5.6001A2.93617,2.93617,0,0,0,8.5,4h0Zm-4,2a2,2,0,1,1,2-2,2.00575,2.00575,0,0,1-2,2h0Zm0,12a2,2,0,1,1,2-2,2.00607,2.00607,0,0,1-2,2h0Zm6-8.5a0.5,0.5,0,1,1-.5.5,0.4726,0.4726,0,0,1,.5-0.5h0ZM21.5,1h-4l-6,6,2,2,8-8h0Z" transform="translate(-0.5)"/></g></g></g></svg>