<?xml version="1.0" encoding="utf-8"?><svg xmlns="http://www.w3.org/2000/svg" xmlns:xlink="http://www.w3.org/1999/xlink"><symbol viewBox="0 0 51.4794 49.4785" id="beard-1"><title>hair-1</title><path d="M50.879 0h-.24c-2.307 7.693-2.926 17.073-9.359 20.64-1.19-3.355-4.11-4.893-7.44-6.36-2.116-.933-4.546-2.557-6.6-2.64a2.193 2.193 0 0 0-1.5.315 2.187 2.187 0 0 0-1.5-.315c-2.055.083-4.485 1.707-6.602 2.64-3.33 1.468-6.25 3.005-7.439 6.36C3.765 17.074 3.145 7.693.84 0H.6A14.55 14.55 0 0 0 0 2.4c0 1.92.543 21.462 1.92 28.44 1.24 6.289 6.077 10.83 10.8 13.8 3.29 2.069 8.506 4.838 13.02 4.838 4.513 0 9.729-2.77 13.02-4.837 4.722-2.97 9.56-7.512 10.8-13.801 1.376-6.978 1.92-26.52 1.92-28.44a14.538 14.538 0 0 0-.601-2.4zM36.95 28.056c-.245 1.552-1.663 3.385-3.36 3.48-2.978.167-4.506-4.415-7.86-4.38-3.353-.035-4.881 4.547-7.86 4.38-1.696-.096-3.115-1.929-3.36-3.48a7.587 7.587 0 0 1 1.68-5.64c1.104-1.067 2.823-.93 4.68-1.2a8.605 8.605 0 0 0 4.86-1.948 8.628 8.628 0 0 0 4.86 1.948c1.857.27 3.576.133 4.68 1.2a7.577 7.577 0 0 1 1.68 5.64z"/></symbol><symbol viewBox="0 0 57.68075 68.6397" id="beard-2"><title>hair-2</title><path d="M51.6 22.2c.12-1.696.474-3.51.72-5.4.703-5.426 1.596-11.67-.12-16.8h-.241C50.637 3.743 50.7 8.348 49.8 12.36a19.72 19.72 0 0 1-3.24 7.56 4.364 4.364 0 0 1-1.92 1.802c-.664-3.922-4.284-4.944-7.681-6.362-2.129-.887-3.97-2.015-6.118-2.159a10.776 10.776 0 0 0-2 .23 10.618 10.618 0 0 0-2-.23c-2.149.145-3.99 1.272-6.12 2.16-3.396 1.417-7.017 2.439-7.68 6.36a4.36 4.36 0 0 1-1.921-1.8 19.718 19.718 0 0 1-3.238-7.56C6.983 8.347 7.047 3.742 5.723 0h-.24c-1.719 5.13-.826 11.374-.12 16.8.244 1.891.597 3.704.718 5.4.792 11.052-6.95 23.12-6 28.92.93 7.53 8.396 9.397 14.16 12.36 4.347 2.236 8.313 4.95 13.321 5.16h2.557c5.01-.21 8.976-2.925 13.32-5.16 5.765-2.964 13.23-4.83 14.16-12.36.953-5.8-6.792-17.868-6-28.92zm-22.758 3.745a35.917 35.917 0 0 1-7.16-.505c.663-2.051 4.034-1.56 7.08-1.56h.159c3.046 0 6.417-.491 7.079 1.56a35.976 35.976 0 0 1-7.158.505z"/></symbol><symbol viewBox="0 0 62.3974 78.4888" id="beard-3"><title>beard-3</title><path d="M62.397 42c0-5.212-2.367-7.775-3.598-9.96a56.01 56.01 0 0 1-4.2-17.64c-.067-4.905-1.693-12.446-2.88-14.4-.865 0-1.522 7.78-2.28 11.64-1.428 7.042-3.766 8.934-4.439 9-.758-2.81-4.113-7.364-13.677-7.725-.048-.017-.083-.03-.125-.043-.043.013-.078.026-.126.043-9.561.36-12.918 4.916-13.675 7.724-.673-.065-3.01-1.957-4.438-9C12.199 7.782 11.543 0 10.679 0 9.49 1.954 7.865 9.495 7.799 14.4a56.057 56.057 0 0 1-4.2 17.64C2.367 34.225 0 36.788 0 42c0 3.745 5.2 7.204 5.639 11.399.125 1.223-.032 2.35.12 3.361 2.003 17.484 17.867 21.73 25.438 21.73 7.574 0 23.439-4.244 25.44-21.729.152-1.011-.004-2.138.12-3.361.44-4.195 5.64-7.652 5.64-11.398zm-29.16-15.24a20.633 20.633 0 0 0-4.08 0c-1.731.34-5.76.988-5.76-1.08 0-1.068 6.72-2.295 7.8-2.295S38.998 24.613 39 25.68c0 2.069-4.028 1.42-5.762 1.08z"/></symbol><symbol viewBox="0 0 57 97.68069" id="beard-4"><title>beard-4</title><path d="M51.121 15.24c-.395-5.453-.61-10.852-2.52-15.24-.765 0-1.53 7.314-2.28 10.92-1.477 7.14-3.714 8.283-4.44 8.28-.858-3.857-4.384-4.241-7.8-5.88a11.097 11.097 0 0 0-3.602-1.199 14.578 14.578 0 0 0-1.979.116 14.4 14.4 0 0 0-1.98-.116 11.12 11.12 0 0 0-3.601 1.2c-3.416 1.638-6.941 2.02-7.8 5.88-.725.003-2.964-1.141-4.44-8.281C9.929 7.315 9.164 0 8.399 0 6.49 4.389 6.274 9.787 5.88 15.24 5 38.778 0 51.528 0 62.4c0 26.066 11.708 35.28 28.5 35.28 16.791 0 28.5-9.214 28.5-35.28.001-10.872-4.999-23.622-5.879-47.16zm-16.68 9.719c-2.794 1.174-5.354-.709-5.88-.719-.018 0-.042.006-.06.006s-.042-.007-.06-.006c-.527.01-3.086 1.894-5.88.719-.785-3.583 2.396-4.042 5.94-3.904 3.545-.138 6.725.322 5.94 3.904z"/></symbol><symbol viewBox="0 0 44.6573 104.78125" id="beard-5"><title>beard-5</title><path d="M43.39 0h-.119c-2.816 21.525-5.382 22.56-6.96 22.68-1.428.11-3.644-1.772-4.922-2.52a15.887 15.887 0 0 0-9.06-2.545 15.898 15.898 0 0 0-9.062 2.545c-1.277.748-3.494 2.63-4.92 2.52-1.58-.12-4.143-1.155-6.959-22.68H1.27C-.804 12.208-.29 50.203 2.47 63.6c2.61 18.52 10.11 35.104 13.439 39.6.683 1.038 3.533 1.566 6.42 1.581 2.888-.015 5.738-.543 6.422-1.582 3.329-4.495 10.829-21.08 13.44-39.6C44.946 50.204 45.461 12.209 43.39 0zM22.328 28.15a100.207 100.207 0 0 0-10.142.53c1.135-1.754 8.991-3.24 10.142-3.45 1.15.21 9.006 1.696 10.14 3.45a100.232 100.232 0 0 0-10.14-.53z"/></symbol><symbol id="chair" viewBox="0 0 94.1611 88.6201"><defs><style>.fcls-1{fill:#ed1c24}</style></defs><title>chair</title><path class="fcls-1" d="M87.19 22.424q-.856 2.601-1.68 5.223a42.992 42.992 0 0 1-12.983 54.167 12.816 12.816 0 0 1 3.14 2.666 47.072 47.072 0 0 0 11.522-62.056zM9.516 70.337c.446 0 .896.014 1.345.024A43.057 43.057 0 0 1 65.992 8.383a22.278 22.278 0 0 1 2.44-3.259 47.073 47.073 0 0 0-62.197 65.36 33.261 33.261 0 0 1 3.281-.147z"/><path class="fcls-1" d="M53.454 82.042c.437-6.144-.872-14.025.657-19.071 4.528-.077 9.56.353 13.153-.659 8.174-14.844 12.026-34.008 18.416-50.64v-2.63c-.675-3.054-3.753-3.702-6.579-4.604h-.656c-10.6 3.43-11.957 16.104-14.466 27.622C48.183 27.917 31.68 32 31.093 47.186c-4.528.076-7.984 1.224-9.865 3.946-.572 6.709 1.569 10.705 6.577 11.839q-1.857 8.006-7.234 12.493c-6.405.612-15.636-1.605-19.072 1.975v2.63c3.15 3.863 12.855 1.177 19.072 1.974 6.593-3.93 8.458-12.588 11.838-19.729 4.674.368 10.865-.78 14.468.657V82.7c-7.826.503-15.446 1.214-19.072 5.92h44.721c-3.255-5.295-12.472-4.627-19.073-6.58zM37.67 47.185c.684-11.703 15.366-11.687 25.648-8.548.103 4.72-.516 10.163 1.315 13.153-7.042-.852-17.078-4.401-26.963-4.605z"/></symbol><symbol id="clock" viewBox="0 0 141.66602 139.54102"><defs><style>.gcls-1{fill:#262424}</style></defs><title>clock</title><path class="gcls-1" d="M71.833 21.463V1a1 1 0 1 0-2 0v20.463c.334-.007.665-.025 1-.025s.666.018 1 .025zm-26.065 6.973a50.897 50.897 0 0 1 1.733-.997L37.263 9.741a1 1 0 0 0-1.73 1.002zm-35.266 6.291a.998.998 0 0 0 .362 1.366l17.682 10.27a47.28 47.28 0 0 1 .999-1.73L11.868 34.364a1 1 0 0 0-1.366.363zM106.41 8.52a.998.998 0 0 0-1.366.363l-10.804 18.6c.583.324 1.162.653 1.73 1l10.802-18.596a.998.998 0 0 0-.362-1.367zm25.372 27.148a1 1 0 0 0-1.002-1.73l-18.613 10.767c.346.568.674 1.15.997 1.734zM22.5 69.77c0-.334.018-.665.025-1H1a1 1 0 0 0 0 2h21.525c-.007-.333-.025-.664-.025-1zm118.166-1h-21.525c.006.335.025.666.025 1s-.019.667-.025 1h21.525a1 1 0 0 0 0-2zm-9.864 34.678l-17.682-10.27a46.477 46.477 0 0 1-1 1.73l17.678 10.269a1 1 0 0 0 1.004-1.729zm-120.918.425a1 1 0 1 0 1.002 1.73l18.613-10.767a48.915 48.915 0 0 1-.997-1.733zm86.014 7.232a48.93 48.93 0 0 1-1.733.997l10.238 17.698a1 1 0 1 0 1.73-1.002zm-61.005 18.549a1 1 0 1 0 1.729 1.004l10.804-18.6a49.623 49.623 0 0 1-1.73-1zm34.94-11.576v20.463a1 1 0 0 0 2 0v-20.463c-.334.007-.665.025-1 .025s-.666-.018-1-.025zm34.911-66.191a1.5 1.5 0 1 0-1.502-2.598L74.81 65.736a5.66 5.66 0 0 0-7.948-.005L46.52 53.912a1.5 1.5 0 0 0-1.507 2.594l20.346 11.82a5.667 5.667 0 1 0 10.951.01zM75.343 66.349c-.02-.026-.037-.052-.058-.077l.058.077zm.393.589l-.021-.036zm-9.78-.044c-.007.012-.015.024-.021.037.006-.013.014-.025.021-.037zm.426-.624l-.049.065.049-.065zm4.451 6.168A2.667 2.667 0 1 1 73.5 69.77a2.67 2.67 0 0 1-2.667 2.667z"/></symbol><symbol id="column" viewBox="0 0 94.1631 91.9912"><defs><style>.hcls-1{fill:#ed1c24}</style></defs><title>column</title><circle class="hcls-1" cx="47.082" cy="17.279" r="9.106"/><path class="hcls-1" d="M67.458 26.385H26.705a2.825 2.825 0 0 0-2.817 2.817v4.47a2.826 2.826 0 0 0 2.817 2.818h.828v45.394h-.828a2.825 2.825 0 0 0-2.817 2.818v4.47a2.825 2.825 0 0 0 2.817 2.82h40.753a2.826 2.826 0 0 0 2.817-2.82v-4.47a2.827 2.827 0 0 0-2.817-2.818h-.826V36.49h.826a2.825 2.825 0 0 0 2.817-2.818v-4.47a2.825 2.825 0 0 0-2.817-2.818zM33.662 36.49h13.199l-13.199 13.2v-13.2zm26.839 45.394H47.027L60.5 68.41v13.475zm0-28.717l-26.839 26.84V64.932l26.839-26.84v15.076z"/><path class="hcls-1" d="M47.081 0a47.083 47.083 0 0 0-28.193 84.79v-.088a7.766 7.766 0 0 1 1.177-4.098 43.08 43.08 0 1 1 54.035 0 7.767 7.767 0 0 1 1.177 4.098v.086A47.083 47.083 0 0 0 47.081 0z"/></symbol><symbol id="logo-big" viewBox="0 0 369.45709 153.0478"><defs><style>.icls-1{fill:#fff}.icls-2{fill:#636466}</style></defs><title>logo-big</title><path class="icls-1" d="M119.858 11.427C127.044 8.998 127.591 0 120.508 0c-1.947 0-4.275 1.37-5.883 4.174l-9.58 16.559a13.828 13.828 0 0 1-1.368 2.019c-2.464-3.387-1.743-8.451 1.71-10.674l-1.437-1.813c-7.458 4.755-5.268 18.475 7.185 18.475 10.64 0 15.566-12.763 8.723-17.313zm-8.792 14.575a10.231 10.231 0 0 1-5.13-1.232 18.435 18.435 0 0 0 1.777-2.532l5.986-10.367.958.103c8.349 1.746 5.032 14.028-3.59 14.028zm3.832-16.217l2.874-4.927c2.6-4.482 5.918-1.847 4.14 1.505-1.369 2.567-3.388 3.353-7.014 3.422z" transform="translate(-.004)"/><path class="icls-1" d="M259.209 18.954l-.237.274a16.738 16.738 0 0 1-6.502 4.995c.58-.924 1.026-1.916 1.471-2.669l3.935-6.74c3.32-5.644-2.053-7.526-5.68-4.275l.72-1.233h-3.56l-5.563 9.655-.012-.006-.24.274a7.664 7.664 0 0 1-5.371 2.634l3.353-5.781c2.156-3.729.172-7.253-3.182-7.253-2.737 0-4.857 1.095-6.91 4.654l-1.745 3.044-1.453 2.486-.19.217c-2.565 2.977-5.063 5.337-6.638 5.337-.787 0-1.23-.547-.41-1.95l5.132-8.998c1.539-2.703.07-4.653-1.916-4.653-1.54 0-3.183.855-4.961 2.704l5.68-9.888h-3.558l-9.924 17.215-.204.233a22.142 22.142 0 0 1-4.277 3.866c1.132-3.387.892-8.587 3.08-13.137l-2.67-1.438c-1.47 2.02-4.685 6.672-7.901 10.435l-.24.274c-2.565 2.977-5.064 5.337-6.636 5.337-.788 0-1.233-.547-.412-1.95l3.56-6.227c1.23-2.155.648-3.421-.515-4.824l-1.984-2.394a1.388 1.388 0 0 1 .204-2.053L191.606 5.1c-2.02 1.813-2.189 3.832-.923 5.474l.307.41c-1.573 2.224-3.694 5.235-6.02 7.972l-.239.274c-2.566 2.977-5.851 5.337-8.348 5.337-2.19 0-3.49-1.368-1.848-4.242l.342-.616c2.292.958 6.604.512 9.272-4.105l.513-.89c1.916-3.284.068-5.748-2.84-5.748a7.526 7.526 0 0 0-6.672 4.106l-3.447 5.915-.214.244a7.593 7.593 0 0 1-5.37 2.634l3.354-5.781a8.66 8.66 0 0 0 1.333-4.07 3.044 3.044 0 0 0-3.217-3.183 4.138 4.138 0 0 0-2.326.787l4.517-7.835h-3.627l-9.974 17.234-.188.214c-2.566 2.977-5.062 5.337-6.638 5.337-.786 0-1.23-.547-.41-1.95l3.558-6.227c1.231-2.155.65-3.42-.513-4.824l-1.984-2.394a1.387 1.387 0 0 1 .205-2.053l-1.847-2.019c-2.02 1.813-2.19 3.832-.925 5.474l.31.41c-1.575 2.224-3.696 5.235-6.021 7.972l-.24.274c-2.566 2.977-5.063 5.337-6.636 5.337-.789 0-1.234-.547-.413-1.95l5.75-10.058h-2.021a3.696 3.696 0 0 0-3.728-3.593c-1.916 0-4.583 1.505-6.09 4.106l-4.995 8.62c-1.506 2.636-.444 5.065 2.43 5.065 1.436 0 3.215-.924 4.926-2.327.17 1.369 1.267 2.327 3.08 2.327 2.94 0 6.328-3.147 9.272-6.569 1.71-1.984 3.044-3.763 5.884-7.629l.479.582a1.749 1.749 0 0 1 .205 2.018l-3.764 6.535c-1.504 2.635-.443 5.064 2.429 5.064 2.063 0 4.345-1.55 6.537-3.652v.025c0 2.429 1.814 3.797 4.105 3.797a7.871 7.871 0 0 0 6.056-3.318 6.024 6.024 0 0 0 .786.034 10.444 10.444 0 0 0 4.725-1.404c-.187 2.568 1.677 4.518 4.821 4.518 4.037 0 8.04-3.147 10.982-6.57 1.712-1.983 3.045-3.762 5.884-7.628l.479.582a1.75 1.75 0 0 1 .205 2.018l-3.764 6.535c-1.505 2.635-.444 5.064 2.43 5.064 2.942 0 6.33-3.147 9.272-6.57 2.017-2.325 3.797-4.823 5.062-6.5-1.401 3.697-.65 10.334-4.036 10.334a1.99 1.99 0 0 1-1.678-1.3l-2.223 1.164a3.88 3.88 0 0 0 3.9 2.874 9.633 9.633 0 0 0 .99-.068c.036 0 .07-.034.105-.034a12.542 12.542 0 0 0 5.466-2.364l-1.224 2.124h3.593l5.404-9.408c5.476-6.876 7.903-5.987 6.363-3.353l-4.618 8.04c-1.506 2.635-.444 5.064 2.43 5.064 2.066 0 4.353-1.556 6.55-3.667-.007 4.537 6.294 5.422 10.146.553h.788a9.802 9.802 0 0 0 3.81-.944l-6.479 11.242h3.593l10.64-18.509c3.968-5.406 6.467-3.42 5.543-1.813l-5.37 9.306a1.373 1.373 0 0 1-2.567 0l-2.018.958a3.879 3.879 0 0 0 3.899 2.874h.206c5.166-.103 8.553-3.182 11.46-6.57a2.247 2.247 0 0 0-1.338-1.239zm-81.016-4.995c2.053-3.524 5.678-2.942 3.558.752l-.513.89c-1.71 2.908-4.004 2.84-5.337 2.36zm-45.605 5.61c-2.155 3.387-4.277 4.996-5.75 4.996-.786 0-1.23-.547-.41-1.95l4.964-8.655c1.915-3.319 5.711-2.463 3.967.752zm26.788 4.86a1.328 1.328 0 0 1-1.438-1.37 4.012 4.012 0 0 1 .618-1.847l1.265-2.19a5.231 5.231 0 0 0 2.258 3.695 3.341 3.341 0 0 1-2.703 1.711zm3.728-3.457a3.843 3.843 0 0 1-1.505-3.216c0-2.532 2.464-6.671 4.481-6.671a1.358 1.358 0 0 1 1.335 1.54 4.334 4.334 0 0 1-.684 2.121zm73.08-1.778h-.17a2.104 2.104 0 0 0-2.088 2.12 2.34 2.34 0 0 0 .343 1.2l-.035.067c-1.675 2.873-5.747 2.326-3.626-1.37l2.703-4.687 1.71-2.908c2.498-4.242 5.92-2.566 3.764 1.13z" transform="translate(-.004)"/><path class="icls-1" transform="rotate(-44.988 5.718 73.28)" d="M1.678 69.233h8.084v8.084H1.678z"/><path class="icls-1" transform="rotate(-44.995 357.707 73.264)" d="M353.667 69.217h8.084v8.085h-8.084z"/><path class="icls-2" d="M46.795 73.48h2.083v-8.324h3.275v-2.084h-5.358V73.48z"/><path class="icls-2" d="M61.691 75.009V62.324a4.564 4.564 0 0 0-2.563-4.07 4.458 4.458 0 0 1 .48 1.987v12.686a4.474 4.474 0 0 1-1.662 3.511 5.196 5.196 0 0 1 1.662 3.694v14.103a4.628 4.628 0 0 1-4.557 4.558H41.49v2.084h15.643a4.628 4.628 0 0 0 4.557-4.558V82.215a5.193 5.193 0 0 0-1.662-3.695 4.474 4.474 0 0 0 1.662-3.511z" transform="translate(-.004)"/><path class="icls-2" d="M46.795 91.34h2.083v-8.385h3.275v-2.084h-5.358V91.34zm33.012 0h2.083V65.156h3.274v-2.084h-5.357V91.34z"/><path class="icls-2" d="M92.14 58.254a4.458 4.458 0 0 1 .48 1.986v33.993a4.628 4.628 0 0 1-4.557 4.558H76.977a4.495 4.495 0 0 1-1.987-.48 4.565 4.565 0 0 0 4.07 2.564h11.086a4.627 4.627 0 0 0 4.556-4.558V62.324a4.57 4.57 0 0 0-2.563-4.07z" transform="translate(-.004)"/><path class="icls-2" d="M112.816 73.48h2.083v-8.324h3.277v-2.084h-5.36V73.48z"/><path class="icls-2" d="M125.065 82.522a4.468 4.468 0 0 0 2.586-4.063V62.324a4.557 4.557 0 0 0-2.566-4.098 4.55 4.55 0 0 1 .483 2.014v16.135a4.465 4.465 0 0 1-2.586 4.064l3.08 18.352h-5.659l.35 2.084h7.393z" transform="translate(-.004)"/><path class="icls-2" d="M115.649 80.871h-2.833v17.92h-5.305v2.084h7.388v-17.92H116l-.351-2.084zm29.196 10.469h2.083V65.156h3.274v-2.084h-5.357V91.34z"/><path class="icls-2" d="M157.177 58.254a4.446 4.446 0 0 1 .48 1.986v33.993a4.628 4.628 0 0 1-4.556 4.558h-11.086a4.487 4.487 0 0 1-1.986-.48 4.56 4.56 0 0 0 4.069 2.564h11.086a4.627 4.627 0 0 0 4.556-4.558V62.324a4.566 4.566 0 0 0-2.563-4.07z" transform="translate(-.004)"/><path class="icls-2" d="M177.854 91.34h2.083V65.156h3.276v-2.084h-5.359V91.34z"/><path class="icls-2" d="M190.189 58.254a4.458 4.458 0 0 1 .479 1.986v33.993a4.628 4.628 0 0 1-4.557 4.558h-13.56v2.084h15.643a4.627 4.627 0 0 0 4.557-4.558V62.324a4.565 4.565 0 0 0-2.563-4.07z" transform="translate(-.004)"/><path class="icls-2" d="M211.235 57.766v41.025h-5.305v2.084h7.388V57.766h-2.083zm32.887 0v41.025h-5.905l.598 2.084h7.39V57.766h-2.083zm-12.81 22.18v18.845h-5.306v2.084h7.389V87.188l-2.083-7.242z"/><path class="icls-2" d="M263.578 82.955h6.108v-2.084h-8.19a4.51 4.51 0 0 1-1.999-.477 4.532 4.532 0 0 0 4.081 2.561z" transform="translate(-.004)"/><path class="icls-2" d="M266.406 85.726l-2.083.485v5.129h2.083v-5.614z"/><path class="icls-2" d="M276.656 58.254a4.46 4.46 0 0 1 .48 1.986v8.744l-5.367 1.243v2.565l7.45-1.725v-8.744a4.562 4.562 0 0 0-2.563-4.07zm0 17.798a4.457 4.457 0 0 1 .48 1.985v16.196a4.629 4.629 0 0 1-4.557 4.558h-11.085a4.502 4.502 0 0 1-1.987-.48 4.565 4.565 0 0 0 4.07 2.564h11.085a4.628 4.628 0 0 0 4.558-4.558V80.121a4.561 4.561 0 0 0-2.564-4.07z" transform="translate(-.004)"/><path class="icls-2" d="M264.323 63.072V73.48h2.083v-8.324h3.277v-2.084h-5.36zm33.691 17.799h-.679v17.92h-5.307v2.084h7.39V85.352l-1.404-4.481zm15.137-23.105h-2.752l-6.228 19.41 6.897 21.615h-6.006l.578 1.838.06.246h7.451l-6.897-21.615 6.897-21.494zm17.38 0v41.025h-5.305v2.084h7.388V57.766h-2.083z"/><path class="icls-1" d="M167.899 123.847h1.409c5.428.277 9.685 1.727 12.392 4.722 2.739-2.986 6.994-4.457 12.455-4.722h1.35c12.106.822 17.629 9.495 27.302 13.19a11.116 11.116 0 0 0 4.785.981c2.475-.27 4.06-2.78 3.741-5.583-.342-3.016-3.275-5.609-6.563-4.172a4.32 4.32 0 0 0-1.166.797 1.126 1.126 0 0 1-1.166.613c-.598-.496.044-1.227.307-1.654a6.01 6.01 0 0 1 6.074-3.008c5.631.404 10.675 5.338 9.815 12.822-1.92 11.209-12.109 14.148-24.172 15.215h-3.927a48.279 48.279 0 0 1-28.772-11.043 49.07 49.07 0 0 1-28.897 11.043h-3.865c-12.16-1.072-22.444-4.017-24.232-15.461-.676-8.158 4.184-12.172 9.815-12.576a6.112 6.112 0 0 1 6.136 3.008c.277.462.802 1.166.306 1.716a1.296 1.296 0 0 1-1.165-.613 4.004 4.004 0 0 0-2.822-1.228c-3.861-.14-6.076 4.154-4.54 7.608a4.334 4.334 0 0 0 3.374 2.516 11.693 11.693 0 0 0 4.786-.982 23.842 23.842 0 0 0 3.865-1.901c7.369-4.321 13.113-10.372 23.375-11.288z" transform="translate(-.004)" id="iUUIVGv.tif"/><path class="icls-2" transform="rotate(-45.005 365.56 81.126)" d="M361.519 79.647h8.084v2.947h-8.084z"/><path class="icls-2" transform="rotate(-45 13.573 81.14)" d="M9.533 79.662h8.085v2.947H9.533z"/><path class="icls-1" d="M55.65 68.967a4.474 4.474 0 0 1-1.663 3.511 5.196 5.196 0 0 1 1.662 3.694v14.102a4.628 4.628 0 0 1-4.557 4.558H35.45V51.724h15.643a4.586 4.586 0 0 1 4.557 4.558v12.685zm-7.452-9.853H42.84v10.408h5.358V59.114zm0 17.798H42.84v10.469h5.358V76.912zm35.907-25.188a4.586 4.586 0 0 1 4.556 4.558v33.994a4.627 4.627 0 0 1-4.556 4.557H73.019a4.587 4.587 0 0 1-4.558-4.557V56.282a4.548 4.548 0 0 1 4.559-4.558h11.085zm-2.896 7.39h-5.357v28.267h5.357V59.114zm33.503 35.718l-3.018-17.92h-2.833v17.92h-7.39V51.724h15.643a4.534 4.534 0 0 1 4.495 4.558v16.135a4.467 4.467 0 0 1-2.586 4.064l3.08 18.351h-7.391zm-.491-35.718h-5.359v10.408h5.359V59.114zm34.922-7.39a4.586 4.586 0 0 1 4.556 4.558v33.994a4.627 4.627 0 0 1-4.556 4.557h-11.086a4.587 4.587 0 0 1-4.558-4.557V56.282a4.548 4.548 0 0 1 4.558-4.558h11.086zm-2.896 7.39h-5.357v28.267h5.357V59.114zm35.905-7.39a4.586 4.586 0 0 1 4.557 4.558v33.994a4.627 4.627 0 0 1-4.557 4.557H166.51V51.724h15.642zm-2.894 7.39H173.9v28.267h5.358V59.114zm20.634-7.39h7.39v43.108h-7.39V51.724zm40.275 0v43.108h-7.39l-5.42-18.843v18.843h-7.39V51.724h7.328l5.42 17.675V51.724h7.452zm28.454 17.798a4.587 4.587 0 0 1 4.558 4.557v16.197a4.628 4.628 0 0 1-4.558 4.557h-11.085a4.587 4.587 0 0 1-4.557-4.557V81.41l7.39-1.724v7.696h5.358v-10.47h-8.19a4.548 4.548 0 0 1-4.558-4.558V56.282a4.547 4.547 0 0 1 4.557-4.558h11.085a4.587 4.587 0 0 1 4.558 4.558v8.744l-7.451 1.725v-7.637h-5.359v10.408h8.252zm31.595 3.695l6.897 21.615h-7.45l-.062-.246-5.543-17.674h-.68v17.92h-7.389V51.724h7.39v17.798h.556l5.666-17.798h7.512zm18.971-21.493h7.39v43.108h-7.39V51.724z" transform="translate(-.004)"/></symbol><symbol id="logo-medium" viewBox="0 0 369.45709 100.877"><defs><style>.jcls-1{fill:#fff}.jcls-2{fill:#636466}</style></defs><title>logo-medium</title><path class="jcls-1" d="M119.858 11.427C127.044 8.998 127.591 0 120.508 0c-1.947 0-4.275 1.37-5.883 4.174l-9.58 16.559a13.835 13.835 0 0 1-1.368 2.019c-2.464-3.387-1.743-8.451 1.71-10.674l-1.437-1.813c-7.458 4.755-5.268 18.475 7.185 18.475 10.64 0 15.566-12.763 8.723-17.313zm-8.792 14.575a10.231 10.231 0 0 1-5.13-1.232 18.429 18.429 0 0 0 1.777-2.532l5.986-10.367.958.103c8.349 1.746 5.032 14.028-3.59 14.028zm3.832-16.217l2.874-4.927c2.6-4.482 5.918-1.847 4.14 1.505-1.369 2.567-3.388 3.353-7.014 3.422z" transform="translate(-.004)"/><path class="jcls-1" d="M259.209 18.954l-.237.274a16.738 16.738 0 0 1-6.502 4.995c.58-.924 1.026-1.916 1.471-2.669l3.935-6.74c3.32-5.644-2.053-7.526-5.68-4.275l.72-1.233h-3.56l-5.563 9.655-.012-.006-.24.274a7.664 7.664 0 0 1-5.371 2.634l3.353-5.781c2.156-3.729.172-7.253-3.182-7.253-2.737 0-4.857 1.095-6.91 4.654l-1.745 3.044-1.453 2.486-.19.217c-2.565 2.977-5.063 5.337-6.638 5.337-.787 0-1.23-.547-.41-1.95l5.132-8.998c1.539-2.703.07-4.653-1.916-4.653-1.54 0-3.183.855-4.961 2.704l5.68-9.888h-3.558l-9.924 17.215-.204.233a22.142 22.142 0 0 1-4.277 3.866c1.132-3.387.892-8.587 3.08-13.137l-2.67-1.438c-1.47 2.02-4.685 6.672-7.901 10.435l-.24.274c-2.565 2.977-5.064 5.337-6.636 5.337-.788 0-1.233-.547-.412-1.95l3.56-6.227c1.23-2.155.648-3.421-.515-4.824l-1.984-2.394a1.388 1.388 0 0 1 .204-2.053L191.606 5.1c-2.02 1.813-2.189 3.832-.923 5.474l.307.41c-1.573 2.224-3.694 5.235-6.02 7.972l-.239.274c-2.566 2.977-5.851 5.337-8.348 5.337-2.19 0-3.49-1.368-1.848-4.242l.342-.616c2.292.958 6.604.512 9.272-4.105l.513-.89c1.916-3.284.068-5.748-2.84-5.748a7.526 7.526 0 0 0-6.672 4.106l-3.447 5.915-.214.244a7.593 7.593 0 0 1-5.37 2.634l3.354-5.781a8.66 8.66 0 0 0 1.333-4.07 3.044 3.044 0 0 0-3.217-3.183 4.138 4.138 0 0 0-2.326.787l4.517-7.835h-3.627l-9.974 17.234-.188.214c-2.566 2.977-5.062 5.337-6.638 5.337-.786 0-1.23-.547-.41-1.95l3.558-6.227c1.231-2.155.65-3.42-.513-4.824l-1.984-2.394a1.387 1.387 0 0 1 .205-2.053l-1.847-2.019c-2.02 1.813-2.19 3.832-.925 5.474l.31.41c-1.575 2.224-3.696 5.235-6.021 7.972l-.24.274c-2.566 2.977-5.063 5.337-6.636 5.337-.789 0-1.234-.547-.413-1.95l5.75-10.058h-2.021a3.696 3.696 0 0 0-3.728-3.593c-1.916 0-4.583 1.505-6.09 4.106l-4.995 8.62c-1.506 2.636-.444 5.065 2.43 5.065 1.436 0 3.215-.924 4.926-2.327.17 1.369 1.267 2.327 3.08 2.327 2.94 0 6.328-3.147 9.272-6.569 1.71-1.984 3.044-3.763 5.884-7.629l.479.582a1.75 1.75 0 0 1 .205 2.018l-3.764 6.535c-1.504 2.635-.443 5.064 2.429 5.064 2.063 0 4.345-1.549 6.537-3.652v.025c0 2.429 1.814 3.797 4.105 3.797a7.871 7.871 0 0 0 6.056-3.318 6.024 6.024 0 0 0 .786.034 10.444 10.444 0 0 0 4.725-1.404c-.187 2.568 1.677 4.518 4.821 4.518 4.037 0 8.04-3.147 10.982-6.57 1.712-1.983 3.045-3.762 5.884-7.628l.479.582a1.75 1.75 0 0 1 .205 2.018l-3.764 6.535c-1.505 2.635-.444 5.064 2.43 5.064 2.942 0 6.33-3.147 9.272-6.57 2.017-2.325 3.797-4.823 5.062-6.5-1.401 3.697-.65 10.334-4.036 10.334a1.99 1.99 0 0 1-1.678-1.3l-2.223 1.164a3.88 3.88 0 0 0 3.9 2.874 9.633 9.633 0 0 0 .99-.068c.036 0 .07-.034.105-.034a12.543 12.543 0 0 0 5.466-2.364l-1.224 2.124h3.593l5.404-9.408c5.476-6.876 7.903-5.987 6.363-3.353l-4.618 8.04c-1.506 2.635-.444 5.064 2.43 5.064 2.066 0 4.353-1.556 6.55-3.667-.007 4.537 6.294 5.422 10.146.553h.788a9.802 9.802 0 0 0 3.81-.944l-6.479 11.242h3.593l10.64-18.509c3.968-5.406 6.467-3.42 5.543-1.813l-5.37 9.306a1.373 1.373 0 0 1-2.567 0l-2.018.958a3.879 3.879 0 0 0 3.899 2.874h.206c5.166-.103 8.553-3.182 11.46-6.57a2.247 2.247 0 0 0-1.338-1.239zm-81.016-4.995c2.053-3.524 5.678-2.942 3.558.752l-.513.89c-1.71 2.908-4.004 2.84-5.337 2.36zm-45.605 5.61c-2.155 3.387-4.277 4.996-5.75 4.996-.786 0-1.23-.547-.41-1.95l4.964-8.655c1.915-3.319 5.711-2.463 3.967.752zm26.788 4.86a1.328 1.328 0 0 1-1.438-1.37 4.012 4.012 0 0 1 .618-1.847l1.265-2.19a5.231 5.231 0 0 0 2.258 3.695 3.341 3.341 0 0 1-2.703 1.711zm3.728-3.457a3.843 3.843 0 0 1-1.505-3.216c0-2.532 2.464-6.671 4.481-6.671a1.358 1.358 0 0 1 1.335 1.54 4.333 4.333 0 0 1-.684 2.121zm73.08-1.778h-.17a2.105 2.105 0 0 0-2.088 2.12 2.34 2.34 0 0 0 .343 1.2l-.035.067c-1.675 2.873-5.747 2.326-3.626-1.37l2.703-4.687 1.71-2.908c2.498-4.242 5.92-2.566 3.764 1.13z" transform="translate(-.004)"/><path class="jcls-1" transform="rotate(-44.99 5.718 73.28)" d="M1.678 69.233h8.084v8.084H1.678z"/><path class="jcls-1" transform="rotate(-44.99 357.707 73.264)" d="M353.667 69.217h8.083v8.084h-8.083z"/><path class="jcls-2" d="M46.795 73.48h2.083v-8.324h3.275v-2.084h-5.358V73.48z"/><path class="jcls-2" d="M61.691 75.009V62.324a4.564 4.564 0 0 0-2.563-4.07 4.461 4.461 0 0 1 .48 1.987v12.686a4.472 4.472 0 0 1-1.662 3.51 5.198 5.198 0 0 1 1.662 3.695v14.104a4.627 4.627 0 0 1-4.557 4.557H41.49v2.084h15.643a4.627 4.627 0 0 0 4.557-4.557V82.215a5.199 5.199 0 0 0-1.662-3.696 4.47 4.47 0 0 0 1.662-3.51z" transform="translate(-.004)"/><path class="jcls-2" d="M46.795 91.34h2.083v-8.385h3.275v-2.084h-5.358V91.34zm33.012 0h2.083V65.156h3.274v-2.084h-5.357V91.34z"/><path class="jcls-2" d="M92.14 58.254a4.455 4.455 0 0 1 .48 1.986v33.994a4.627 4.627 0 0 1-4.557 4.557H76.977a4.47 4.47 0 0 1-1.987-.48 4.566 4.566 0 0 0 4.07 2.564h11.086a4.627 4.627 0 0 0 4.556-4.557V62.324a4.57 4.57 0 0 0-2.563-4.07z" transform="translate(-.004)"/><path class="jcls-2" d="M112.816 73.48h2.083v-8.324h3.277v-2.084h-5.36V73.48z"/><path class="jcls-2" d="M125.065 82.523a4.47 4.47 0 0 0 2.586-4.064V62.324a4.556 4.556 0 0 0-2.566-4.097 4.545 4.545 0 0 1 .483 2.013v16.135a4.469 4.469 0 0 1-2.586 4.064l3.08 18.352h-5.659l.35 2.084h7.393z" transform="translate(-.004)"/><path class="jcls-2" d="M115.649 80.871h-2.833v17.92h-5.305v2.084h7.388v-17.92H116l-.351-2.084zm29.196 10.469h2.083V65.156h3.274v-2.084h-5.357V91.34z"/><path class="jcls-2" d="M157.177 58.254a4.443 4.443 0 0 1 .48 1.986v33.994a4.627 4.627 0 0 1-4.556 4.557h-11.086a4.461 4.461 0 0 1-1.986-.48 4.562 4.562 0 0 0 4.069 2.564h11.086a4.627 4.627 0 0 0 4.556-4.557V62.324a4.567 4.567 0 0 0-2.563-4.07z" transform="translate(-.004)"/><path class="jcls-2" d="M177.854 91.34h2.083V65.156h3.276v-2.084h-5.359V91.34z"/><path class="jcls-2" d="M190.189 58.254a4.455 4.455 0 0 1 .479 1.986v33.994a4.627 4.627 0 0 1-4.557 4.557h-13.56v2.084h15.643a4.627 4.627 0 0 0 4.557-4.557V62.324a4.566 4.566 0 0 0-2.563-4.07z" transform="translate(-.004)"/><path class="jcls-2" d="M211.235 57.766v41.025h-5.305v2.084h7.388V57.766h-2.083zm32.887 0v41.025h-5.905l.598 2.084h7.39V57.766h-2.083zm-12.81 22.181v18.844h-5.306v2.084h7.389V87.189l-2.083-7.242z"/><path class="jcls-2" d="M263.578 82.955h6.108v-2.084h-8.19a4.535 4.535 0 0 1-1.999-.476 4.532 4.532 0 0 0 4.081 2.56z" transform="translate(-.004)"/><path class="jcls-2" d="M266.406 85.725l-2.083.486v5.129h2.083v-5.615z"/><path class="jcls-2" d="M276.656 58.254a4.456 4.456 0 0 1 .48 1.986v8.744l-5.367 1.243v2.565l7.45-1.726v-8.743a4.562 4.562 0 0 0-2.563-4.07zm0 17.798a4.455 4.455 0 0 1 .48 1.985v16.197a4.628 4.628 0 0 1-4.557 4.557h-11.085a4.475 4.475 0 0 1-1.987-.48 4.565 4.565 0 0 0 4.07 2.564h11.085a4.628 4.628 0 0 0 4.558-4.557V80.121a4.56 4.56 0 0 0-2.564-4.07z" transform="translate(-.004)"/><path class="jcls-2" d="M264.323 63.072V73.48h2.083v-8.324h3.277v-2.084h-5.36zm33.691 17.799h-.679v17.92h-5.307v2.084h7.39V85.352l-1.404-4.481zm15.137-23.105h-2.752l-6.228 19.41 6.897 21.615h-6.006l.578 1.838.06.246h7.451l-6.897-21.615 6.897-21.494zm17.38 0v41.025h-5.305v2.084h7.388V57.766h-2.083z"/><path class="jcls-2" transform="rotate(-45.005 365.56 81.126)" d="M361.519 79.647h8.084v2.947h-8.084z"/><path class="jcls-2" transform="rotate(-45 13.573 81.141)" d="M9.533 79.663h8.085v2.947H9.533z"/><path class="jcls-1" d="M55.65 68.967a4.476 4.476 0 0 1-1.663 3.512 5.194 5.194 0 0 1 1.662 3.693v14.103a4.627 4.627 0 0 1-4.557 4.557H35.45V51.725h15.643a4.586 4.586 0 0 1 4.557 4.557v12.685zm-7.452-9.853H42.84v10.408h5.358V59.114zm0 17.798H42.84v10.469h5.358V76.912zm35.907-25.187a4.586 4.586 0 0 1 4.556 4.557v33.993a4.627 4.627 0 0 1-4.556 4.558H73.019a4.587 4.587 0 0 1-4.558-4.558V56.282a4.547 4.547 0 0 1 4.559-4.557h11.085zm-2.896 7.39h-5.357V87.38h5.357V59.114zm33.503 35.717l-3.018-17.92h-2.833v17.92h-7.39V51.725h15.643a4.533 4.533 0 0 1 4.495 4.557v16.135a4.465 4.465 0 0 1-2.586 4.064l3.08 18.351h-7.391zm-.491-35.718h-5.359v10.408h5.359V59.114zm34.922-7.389a4.586 4.586 0 0 1 4.556 4.557v33.993a4.627 4.627 0 0 1-4.556 4.558h-11.086a4.587 4.587 0 0 1-4.558-4.558V56.282a4.547 4.547 0 0 1 4.558-4.557h11.086zm-2.896 7.39h-5.357V87.38h5.357V59.114zm35.905-7.39a4.586 4.586 0 0 1 4.557 4.557v33.993a4.627 4.627 0 0 1-4.557 4.558H166.51V51.725h15.642zm-2.894 7.39H173.9V87.38h5.358V59.114zm20.634-7.39h7.39v43.107h-7.39V51.725zm40.275 0v43.107h-7.39l-5.42-18.843v18.843h-7.39V51.725h7.328l5.42 17.673V51.725h7.452zm28.454 17.797a4.588 4.588 0 0 1 4.558 4.557v16.196a4.628 4.628 0 0 1-4.558 4.558h-11.085a4.587 4.587 0 0 1-4.557-4.558V81.41l7.39-1.725v7.697h5.358v-10.47h-8.19a4.549 4.549 0 0 1-4.558-4.559v-16.07a4.546 4.546 0 0 1 4.557-4.558h11.085a4.587 4.587 0 0 1 4.558 4.557v8.743l-7.451 1.726v-7.637h-5.359v10.408h8.252zm31.595 3.695l6.897 21.615h-7.45l-.062-.246-5.543-17.674h-.68v17.92h-7.389V51.725h7.39v17.797h.556l5.666-17.797h7.512zm18.971-21.492h7.39v43.107h-7.39V51.725z" transform="translate(-.004)"/></symbol><symbol id="logo-small" viewBox="0 0 225.8135 30.0395"><defs><style>.kcls-1{fill:#fff}.kcls-2{fill:#636466}</style></defs><title>logo-small</title><path class="kcls-1" transform="rotate(-44.996 3.494 13.171)" d="M1.023 10.702h4.941v4.941H1.023z"/><path class="kcls-1" transform="rotate(-44.999 218.62 13.181)" d="M216.149 10.711h4.94v4.942h-4.94z"/><path class="kcls-2" d="M28.603 13.297h1.273V8.209h2.002V6.936h-3.275v6.361z"/><path class="kcls-2" d="M37.705 14.23V6.479a2.79 2.79 0 0 0-1.567-2.487 2.727 2.727 0 0 1 .293 1.213v7.753a2.732 2.732 0 0 1-1.016 2.146 3.182 3.182 0 0 1 1.016 2.259v8.619a2.828 2.828 0 0 1-2.785 2.785h-8.288v1.274h9.562a2.828 2.828 0 0 0 2.785-2.786v-8.619a3.18 3.18 0 0 0-1.016-2.26 2.73 2.73 0 0 0 1.016-2.144z" transform="translate(.001)"/><path class="kcls-2" d="M28.603 24.211h1.273v-5.125h2.002v-1.273h-3.275v6.398zm20.175 0h1.274V8.209h2.002V6.936h-3.276v17.275z"/><path class="kcls-2" d="M56.313 3.991a2.702 2.702 0 0 1 .293 1.213v20.777a2.828 2.828 0 0 1-2.785 2.785h-6.773a2.72 2.72 0 0 1-1.215-.295 2.788 2.788 0 0 0 2.486 1.568h6.776a2.828 2.828 0 0 0 2.785-2.785V6.478a2.788 2.788 0 0 0-1.568-2.487z" transform="translate(.001)"/><path class="kcls-2" d="M68.954 13.297h1.274V8.209h2.001V6.936h-3.275v6.361z"/><path class="kcls-2" d="M76.438 18.823a2.73 2.73 0 0 0 1.58-2.485v-9.86a2.781 2.781 0 0 0-1.568-2.504 2.78 2.78 0 0 1 .295 1.231v9.86a2.73 2.73 0 0 1-1.581 2.484l1.882 11.218h-3.458l.214 1.272h4.516z" transform="translate(.001)"/><path class="kcls-2" d="M70.686 17.813h-1.732v10.954h-3.243v1.273h4.517V19.086h.671l-.213-1.273zm17.841 6.398h1.275V8.209h2.002V6.936h-3.277v17.275z"/><path class="kcls-2" d="M96.063 3.991a2.714 2.714 0 0 1 .292 1.213v20.777a2.828 2.828 0 0 1-2.785 2.785h-6.775a2.724 2.724 0 0 1-1.213-.294 2.786 2.786 0 0 0 2.485 1.567h6.776a2.828 2.828 0 0 0 2.785-2.785V6.478a2.785 2.785 0 0 0-1.566-2.487z" transform="translate(.001)"/><path class="kcls-2" d="M108.704 24.211h1.273V8.209h2.002V6.936h-3.275v17.275z"/><path class="kcls-2" d="M116.238 3.991a2.728 2.728 0 0 1 .294 1.213v20.777a2.829 2.829 0 0 1-2.785 2.785h-8.288v1.273h9.56a2.827 2.827 0 0 0 2.785-2.785V6.478a2.786 2.786 0 0 0-1.566-2.487z" transform="translate(.001)"/><path class="kcls-2" d="M129.105 3.693v25.074h-3.244v1.273h4.518V3.693h-1.274zm20.101 0v25.074h-3.61l.366 1.273h4.516V3.693h-1.272zm-7.83 13.555v11.519h-3.242v1.273h4.514v-8.364l-1.272-4.428z"/><path class="kcls-2" d="M161.094 19.086h3.732v-1.272h-5.007a2.744 2.744 0 0 1-1.221-.291 2.774 2.774 0 0 0 2.496 1.563z" transform="translate(.001)"/><path class="kcls-2" d="M162.824 20.78l-1.271.297v3.134h1.271V20.78z"/><path class="kcls-2" d="M169.086 3.991a2.715 2.715 0 0 1 .294 1.213v5.345l-3.281.76v1.567l4.554-1.054V6.478a2.79 2.79 0 0 0-1.567-2.487zm0 10.879a2.715 2.715 0 0 1 .294 1.213v9.898a2.828 2.828 0 0 1-2.785 2.785h-6.775a2.724 2.724 0 0 1-1.215-.295 2.788 2.788 0 0 0 2.489 1.568h6.774a2.827 2.827 0 0 0 2.784-2.785v-9.9a2.785 2.785 0 0 0-1.566-2.485z" transform="translate(.001)"/><path class="kcls-2" d="M161.553 6.936v6.361h1.271V8.209h2.003V6.936h-3.274zm20.59 10.877h-.415v10.954h-3.245v1.273h4.519v-9.489l-.859-2.738zm9.251-14.12h-1.681l-3.808 11.862 4.216 13.212h-3.67l.352 1.123.038.15h4.553l-4.214-13.211 4.214-13.136zm10.623 0v25.074h-3.245v1.273h4.518V3.693h-1.273z"/><path class="kcls-2" transform="rotate(-45.009 223.43 17.976)" d="M220.959 17.077h4.941v1.8h-4.941z"/><path class="kcls-2" transform="rotate(-45 8.298 17.975)" d="M5.827 17.076h4.941v1.801H5.827z"/><path class="kcls-1" d="M34.012 10.539a2.734 2.734 0 0 1-1.016 2.146 3.178 3.178 0 0 1 1.016 2.257v8.62a2.828 2.828 0 0 1-2.786 2.785h-9.559V0h9.56a2.804 2.804 0 0 1 2.785 2.786v7.753zm-4.554-6.023h-3.275v6.36h3.275v-6.36zm0 10.879h-3.275v6.398h3.275v-6.398zM51.401 0a2.803 2.803 0 0 1 2.785 2.786v20.776a2.828 2.828 0 0 1-2.785 2.785h-6.774a2.804 2.804 0 0 1-2.786-2.785V2.786A2.78 2.78 0 0 1 44.627 0H51.4zm-1.768 4.516h-3.276v17.277h3.276V4.516zM70.11 26.347l-1.845-10.952h-1.732v10.952h-4.516V0h9.561a2.772 2.772 0 0 1 2.748 2.786v9.861a2.732 2.732 0 0 1-1.58 2.484l1.88 11.216H70.11zm-.301-21.83h-3.275v6.36h3.275v-6.36zM91.151 0a2.802 2.802 0 0 1 2.785 2.786v20.776a2.827 2.827 0 0 1-2.785 2.785h-6.774a2.803 2.803 0 0 1-2.785-2.785V2.786A2.78 2.78 0 0 1 84.377 0h6.774zm-1.768 4.516h-3.276v17.277h3.276V4.516zM111.328 0a2.803 2.803 0 0 1 2.784 2.786v20.776a2.827 2.827 0 0 1-2.784 2.785h-9.561V0h9.561zm-1.77 4.516h-3.275v17.277h3.275V4.516zM122.169 0h4.516v26.347h-4.516V0zm24.615 0v26.347h-4.516l-3.312-11.517v11.517h-4.518V0h4.48l3.311 10.803V0h4.555zm17.392 10.877a2.804 2.804 0 0 1 2.785 2.785v9.899a2.829 2.829 0 0 1-2.785 2.785h-6.777a2.801 2.801 0 0 1-2.784-2.785v-5.42l4.516-1.055v4.706h3.274v-6.398H157.4a2.778 2.778 0 0 1-2.784-2.786V2.786A2.778 2.778 0 0 1 157.4 0h6.776a2.804 2.804 0 0 1 2.785 2.786V8.13l-4.556 1.054V4.516h-3.274v6.36h5.046zm19.308 2.259l4.217 13.21h-4.554l-.039-.15-3.387-10.802h-.415v10.952h-4.516V0h4.516v10.877h.34L183.107 0h4.593zM195.08 0h4.516v26.347h-4.516V0z" transform="translate(.001)"/></symbol><symbol viewBox="0 0 21.69728 16.09113" id="mark"><title>mark</title><path d="M21.404.293a.999.999 0 0 0-1.414 0L6.607 13.677l-4.9-4.9A1 1 0 1 0 .293 10.19L5.9 15.798a1 1 0 0 0 1.414 0l14.09-14.09a1 1 0 0 0 0-1.415z"/></symbol><symbol id="mustache" viewBox="0 0 44.9776 12.90072"><defs><style>.mcls-1{fill:#010101}</style></defs><title>mustache</title><path class="mcls-1" d="M22.488 8.24a10.475 10.475 0 0 0 8.78 4.65c7.162.277 13.71-5.217 13.71-7.28-2.758 2.493-7.368 2.716-9.931 1.695-3.778-1.51-3.12-4.494-5.874-6.448a5.137 5.137 0 0 0-5.688 0 5.189 5.189 0 0 0-.997.811 5.122 5.122 0 0 0-.997-.81 5.139 5.139 0 0 0-5.688 0C13.05 2.81 13.708 5.794 9.93 7.304c-2.564 1.023-7.172.8-9.93-1.695 0 2.064 6.547 7.558 13.709 7.282a10.471 10.471 0 0 0 8.78-4.65z"/></symbol><symbol id="shears-1" viewBox="0 0 94.9434 94.164"><defs><style>.ncls-1{fill:#ed1c24}</style></defs><title>scissors</title><path class="ncls-1" d="M90.284 28.39a47.208 47.208 0 0 0-8.509-13.097q-.97 1.89-1.975 3.778a43.16 43.16 0 0 1 6.423 10.013c1.34-.241 2.694-.466 4.061-.694zm-.275 15.174a43.21 43.21 0 0 1 .155 3.518 43.083 43.083 0 0 1-43.082 43.082q-1.18 0-2.342-.066a7.49 7.49 0 0 1 .219 1.841 6.591 6.591 0 0 1-.403 2.155c.837.045 1.678.07 2.526.07a47.001 47.001 0 0 0 46.666-53.241 38.307 38.307 0 0 1-3.74 2.64zM4 47.082a43.075 43.075 0 0 1 64.65-37.29 345.102 345.102 0 0 1 3.362-2.623 47.065 47.065 0 1 0-42.355 83.638 18.216 18.216 0 0 1-.57-4.582A43.079 43.079 0 0 1 4 47.082z"/><path class="ncls-1" d="M38.77 84.906c7.738-2.72 16.312-9.662 14.54-19.826-.898-5.144-4.48-5-7.27-9.252C60.478 43.831 70.252 27.172 79.083 9.567h-1.982c-7.447 5.661-21.91 16.983-28.417 26.435-2.604 3.78-4.594 9.313-7.27 13.878-4.543 7.745-15.126 21.23-6.61 31.061-1.38 4.62-1.203 12.389 3.966 12.557 3.27-1.727-1.385-4.604 0-8.592zm8.312-38.825a2.583 2.583 0 1 1-2.583 2.583 2.584 2.584 0 0 1 2.583-2.583zM36.787 74.994c-1.856-9.003 7.01-16.95 11.897-9.252.26 7.418-6.182 15.768-11.897 9.252z"/><path class="ncls-1" d="M55.953 51.203C69.916 46 86.53 43.45 94.943 32.698c-9.414 1.38-18.119 3.469-27.756 4.626-2.133 6.236-7.03 9.711-11.234 13.88zM12.335 39.968c-4.223 12.248 8.425 15.99 21.81 13.878 3.784-4.814 5.85-9.964 1.982-15.861-4.894-7.461-20.911-6.373-23.792 1.983zm5.287 7.269c-5.123-10.84 12.89-11.066 14.54-5.287 2.177 7.632-9.098 8.032-14.54 5.287z"/></symbol><symbol viewBox="0 0 21 20" id="shears-2"><title>shears-small</title><path d="M8 4a4 4 0 1 0-4 4 2.936 2.936 0 0 0 1.6-.4L8 10l-2.4 2.4A2.928 2.928 0 0 0 4 12a4 4 0 1 0 4 4 2.936 2.936 0 0 0-.4-1.6L10 12l7 7h4L7.6 5.6A2.936 2.936 0 0 0 8 4zM4 6a2 2 0 1 1 2-2 2.006 2.006 0 0 1-2 2zm0 12a2 2 0 1 1 2-2 2.006 2.006 0 0 1-2 2zm6-8.5a.5.5 0 1 1-.5.5.473.473 0 0 1 .5-.5zM21 1h-4l-6 6 2 2 8-8z"/></symbol></svg>